<svg id="trilliumFlower" width="400" height="353.97614" viewBox="0 0 385.19024 252.64912" sodipodi:docname="fullTrillium.svg" inkscape:version="1.2 (1:1.2.1+202207142221+cd75a1ee6d)" xmlns:inkscape="http://www.inkscape.org/namespaces/inkscape" xmlns:sodipodi="http://sodipodi.sourceforge.net/DTD/sodipodi-0.dtd" xmlns="http://www.w3.org/2000/svg" xmlns:svg="http://www.w3.org/2000/svg"><defs id="defs261"/><path style="display:inline;fill:#080808;stroke:none;stroke-width:1.52249;image-rendering:pixelated" d="m191.32138 31.592507c-25.27639 37.15737-57.95361 58.533445-48.71974 108.096923-41.96594 3.66463-50.158442 43.47321-60.0455 76.12455-2.563862 8.46505-7.542435 15.86893-9.989091 24.35986 34.635181.0 97.142571 23.16774 117.231831-19.79238h3.04501c22.70185 43.75639 81.6527 21.31486 118.75427 21.31486-15.11986-36.36469-19.11487-100.01547-71.55709-100.4844 4.18989-21.60263 3.63417-45.305373-10.06822-63.944623-6.18892-8.418918-13.79155-16.413329-20.46467-24.424829-6.16757-7.403117-10.71745-15.06117-18.1868-21.249961" id="trillium-center" clip-path="url(#clipPath323-7)"/><sodipodi:namedview id="namedview922" pagecolor="#ffffff" bordercolor="#000000" borderopacity=".25" inkscape:showpageshadow="2" inkscape:pageopacity="0" inkscape:pagecheckerboard="0" inkscape:deskcolor="#d1d1d1" showgrid="false" inkscape:zoom=".65538715" inkscape:cx="107.57001" inkscape:cy="225.82072" inkscape:window-width="1920" inkscape:window-height="1135" inkscape:window-x="0" inkscape:window-y="0" inkscape:window-maximized="1" inkscape:current-layer="trilliumFlower"/><path style="display:inline;fill:#080808;stroke:none;stroke-width:1.52249;image-rendering:pixelated" d="M191.83387-47.239808c-9.17452 12.846633-16.66671 26.387668-27.54189 38.0622822C149.91661 6.2577924 133.41739 18.651934 123.73285 38.019706 111.3565 62.77332 111.51944 87.466147 112.66433 114.14429L119.0786 97.396893l18.5911-33.494797L176.45059 19.7498 194.87881-6.1325439c13.67962 29.2634929 39.49493 46.3718989 58.21858 71.5571249 10.52041 14.151408 14.95081 30.448911 19.42851 47.197229h1.52244c0-30.059302-1.86048-59.363454-19.85174-85.259557-11.53438-16.602003-27.54183-28.9066175-40.59115-44.152234-8.10876-9.47431-13.34156-21.44651-21.77158-30.449827M0 284.66329c44.082822.0 87.920822 13.10865 130.93423 2.08582 14.5337-3.72401 36.94169-10.72595 44.15225-24.92318.0.0-39.35657 8.81751-59.37715 9.07557-28.132673.36262-83.737034-10.59806-83.737034-10.59806s13.040131-30.08638 18.033756-45.67474c4.786471-14.94165 4.779001-31.43695 11.370597-45.67473C68.203413 154.20822 89.82699 129.36921 89.82699 129.36921 31.878537 143.14014 23.982291 206.966 11.605475 254.21347 8.8512761 264.7278 3.4831664 274.36668.0 284.66329m293.84074-155.29408-1.15677.013-2.57114-.17772.67389 2.2785 1.53153 2.45366c15.35432 16.15972 29.99765 34.49964 37.15186 56.33217 7.88191 24.05688 8.41324 48.4959 23.74778 70.03459.0.0-64.72596 13.24674-97.43944 12.15708-16.01404-.53342-47.19718-9.11211-47.19718-9.11211v1.5225l6.47895 7.3216c53.9251 36.3784 110.84268 17.53763 170.13002 7.90331-3.4454-14.50326-12.44943-27.02574-17.13113-41.10726-13.34762-40.15265-24.90795-97.79721-74.21837-109.61936" id="trillium-pedals" clip-path="url(#clipPath323)" sodipodi:nodetypes="cccccccccccccccccscssccccccccccscccccc"/></svg>