<svg xmlns="http://www.w3.org/2000/svg" width="150" height="250" viewBox="0 0 385.19 252.649" fill="#080808" xmlns:v="https://vecta.io/nano">

<path d="M191.834-47.24c-9.175 12.847-16.667 26.388-27.542 38.062-14.375 15.435-30.875 27.829-40.559 47.197-12.376 24.754-12.213 49.446-11.069 76.125l6.414-16.747 18.591-33.495 38.781-44.152 18.428-25.882c13.68 29.263 39.495 46.372 58.219 71.557 10.52 14.151 14.951 30.449 19.429 47.197h1.522c0-30.059-1.86-59.363-19.852-85.26-11.534-16.602-27.542-28.907-40.591-44.152-8.109-9.474-13.342-21.447-21.772-30.45M0 284.663c44.083 0 87.921 13.109 130.934 2.086 14.534-3.724 36.942-10.726 44.152-24.923 0 0-39.357 8.818-59.377 9.076-28.133.363-83.737-10.598-83.737-10.598s13.04-30.086 18.034-45.675c4.786-14.942 4.779-31.437 11.371-45.675 6.827-14.746 28.45-39.585 28.45-39.585-57.948 13.771-65.845 77.597-78.222 124.844C8.851 264.728 3.483 274.367 0 284.663m293.841-155.294l-1.157.013-2.571-.178.674 2.279 1.532 2.454c15.354 16.16 29.998 34.5 37.152 56.332 7.882 24.057 8.413 48.496 23.748 70.035 0 0-64.726 13.247-97.439 12.157-16.014-.533-47.197-9.112-47.197-9.112v1.522l6.479 7.322c53.925 36.378 110.843 17.538 170.13 7.903-3.445-14.503-12.449-27.026-17.131-41.107-13.348-40.153-24.908-97.797-74.218-109.619" clip-path="url(#clipPath323)" image-rendering="pixelated" id="trillium-pedals"/>

</svg>